# xmcd CD database file
#
# Track frame offsets:
#	150
#	16365
#	33367
#	52537
#	65665
#	83657
#	95165
#	113572
#	128715
#	145587
#	163475
#	182202
#	199117
#	213507
#	231732
#
# Disc length: 3288 seconds
#
# Revision: 8
# Processed by: cddbd v1.5.1PL2 Copyright (c) Steve Scherf et al.
# Submitted via: CDex 1.51
#
DISCID=d30cd60f
DTITLE=Vince Gill - Souvenirs
DYEAR=1995
DGENRE=Country
TTITLE0=Never Alone
TTITLE1=Never Knew Lonely
TTITLE2=When I Call Your Name
TTITLE3=Liza Jane
TTITLE4=Look At Us
TTITLE5=Take Your Memory With You
TTITLE6=Pocket Full Of Gold
TTITLE7=The Heart Won't Lie (with Reba McEntire)
TTITLE8=Don't Let Our Love Start Slippin' Away
TTITLE9=I Still Believe In You
TTITLE10=No Future In The Past
TTITLE11=Tryin' To Get Over You
TTITLE12=One More Last Chance
TTITLE13=I Can't Tell You Why
TTITLE14=I Will Always Love You (with Dolly Parton)
EXTD=YEAR: 1995
EXTT0=
EXTT1=
EXTT2=
EXTT3=
EXTT4=
EXTT5=
EXTT6=
EXTT7=
EXTT8=
EXTT9=
EXTT10=
EXTT11=
EXTT12=
EXTT13=
EXTT14=
PLAYORDER=
